<?xml version="1.0" encoding="UTF-8"?>
<svg id="Layer_2" data-name="Layer 2" xmlns="http://www.w3.org/2000/svg" viewBox="0 0 1839.61 291.37">
  <defs>
    <style>
      .cls-1 {
        fill: #000;
      }

      .cls-1, .cls-2 {
        stroke-width: 0px;
      }

      .cls-2 {
        fill: #fff;
      }
    </style>
  </defs>
  <g id="Layer_1-2" data-name="Layer 1">
    <g>
      <g>
        <g>
          <path class="cls-1" d="M857.22,194.82c-.2.42-.42.89-.65,1.35-4.09,8.2-8.86,15.97-14.79,22.99-6.37,7.56-13.77,13.87-22.59,18.44-6.26,3.25-12.89,5.39-19.84,6.55-5.17.86-10.37,1.18-15.59.9-5.92-.31-11.67-1.53-17.25-3.56-4.96-1.8-9.64-4.15-14.02-7.07-3.2-2.14-5.95-4.79-8.52-7.64-1.73-1.92-3.33-3.97-5.01-5.94-.46-.54-.92-1.1-1.46-1.55-1.06-.87-2.12-.67-2.91.46-.42.61-.55,1.3-.58,2.03-.08,1.84.28,3.61.76,5.36.29,1.05.62,2.1.99,3.33-.3-.25-.47-.37-.61-.52-8.41-8.31-13.85-18.26-16.41-29.79-1.55-6.95-1.9-13.98-1.41-21.06.51-7.34,1.93-14.5,4.27-21.48.36-1.07.57-2.19.76-3.3.08-.46.01-.97-.11-1.44-.22-.85-.85-1.21-1.7-1.04-.88.17-1.67.59-2.31,1.19-1.13,1.06-2.19,2.2-3.27,3.31-.2.2-.37.43-.72.59.12-.91.21-1.82.36-2.72,1.35-8.16,4.73-15.44,9.53-22.1,4.16-5.77,9.11-10.78,14.78-15.06.41-.31.84-.58,1.27-.87.84.74,1.14,1.65,1.28,2.63.24,1.63,0,3.23-.3,4.83-.5,2.67-1.05,5.34-1.53,8.01-.54,3-.83,6.03-.9,9.08,0,.23,0,.45.03.68,0,.05.08.09.18.2,4.27-4.84,9.39-8.67,14.68-12.28,5.28-3.6,10.72-6.91,16.77-9.2-1.78,2.68-3.21,5.51-4.16,8.56-.96,3.06-1.5,6.19-1.43,9.5.23-.2.47-.39.69-.6,2.63-2.51,5.56-4.57,8.95-5.89,3.96-1.55,7.99-1.81,12.07-.45.12.04.24.09.36.14.06.03.11.07.23.15-.16.19-.31.39-.48.56-5.62,5.59-10.42,11.79-13.95,18.92-2.78,5.62-4.66,11.52-5.31,17.78-.84,8.16.28,15.97,4.29,23.23,3.36,6.08,8.19,10.59,14.75,13.04,6.94,2.6,13.83,2.32,20.62-.64,4.68-2.04,8.83-4.9,12.63-8.26,6.22-5.5,11.39-11.85,15.45-19.1.09-.17.2-.33.29-.49,1.4.62,20.53,16.62,21.8,18.24Z"/>
          <path class="cls-1" d="M863.15,196.05c-1.18-2.16-2.77-3.98-4.62-5.59-7.48-6.51-15.1-12.84-22.89-18.98-2.43-1.91-4.63-4.04-6.44-6.57-2.23-3.13-3.24-6.67-3.52-10.45-.08-1.13-.21-2.26-.33-3.38-.24-2.39-1.27-4.43-3.02-6.04-1.54-1.43-3.22-2.7-4.84-4.05-1.34-1.12-2.78-2.15-3.98-3.4-3.43-3.58-3.99-7.83-2.62-12.45.08-.26.23-.5.41-.9.05.25.08.33.08.41.01,3.16,1.56,5.47,4.07,7.22,1.85,1.28,3.92,2,6.13,2.29,1.99.26,4,.38,5.99.6,1.32.15,2.6.51,3.82,1.05,1.87.83,3.13,2.22,3.7,4.14.5,1.7.78,3.47,1.21,5.2.26,1.03.54,2.07.94,3.05.64,1.57,1.9,2.45,3.56,2.67,1.31.18,2.64.22,3.96.33,1.74.14,3.49.21,5.22.46,2.88.42,5.44,1.61,7.69,3.47,8.84,7.3,17.7,14.58,26.55,21.88,1.08.89,2.15,1.78,3.23,2.65"/>
          <path class="cls-1" d="M883.55,218.45c-.02-.25-.08-.5-.13-.77"/>
          <path class="cls-1" d="M800.38,48.89c.09,1.16.12,2.33.27,3.48.5,3.85,1.92,7.38,3.88,10.7,2.23,3.79,5.03,7.15,8.04,10.33,3.39,3.58,7.07,6.86,10.72,10.15,3.86,3.48,7.59,7.07,10.67,11.27,2.53,3.45,4.59,7.13,5.72,11.29.76,2.82.99,5.67.57,8.57-.04.28-.05.57-.08.92,3.23,1.22,5.5,3.19,5.31,7.14.55-.18,1.02-.28,1.43-.48,2.55-1.23,4.49-3.14,6-5.51.17-.27.34-.55.51-.82.01-.02.06-.02.17-.05.04.24.1.48.12.72.45,4.98-.41,9.75-2.29,14.35-1.62,3.97-3.87,7.56-7.05,10.48-.97.89-2.1,1.62-3.17,2.4-.25.18-.54.29-.98.52.08-.47.13-.75.18-1.03.47-2.3.45-4.57-.44-6.78-.76-1.91-2.02-3.37-3.84-4.35-1.99-1.08-4.15-1.63-6.37-1.97-2.6-.4-5.22-.54-7.85-.41-.22.01-.44,0-.77,0,.19-.36.35-.63.48-.92.65-1.41,1.37-2.79,1.9-4.25.31-.86.39-1.83.43-2.76.06-1.29-.55-2.21-1.75-2.76-1.26-.57-2.6-.79-3.95-.95-2.68-.33-5.37-.29-8.06-.13-4.14.26-8.26.76-12.31,1.66-1.52.34-3.01.77-4.51,1.16-.2.05-.38.16-.56.33,4.08.13,8.11.43,12.12,1.66-.21.41-.36.68-.5.97-1.43,2.89-2.56,5.88-2.82,9.13-.05.64,0,1.29.09,1.93.1.76.44,1.42,1.05,1.91.64.52,1.37.8,2.17.47.68-.28,1.32-.66,1.95-1.04.35-.21.63-.53,1.09-.92-.08.41-.11.65-.16.88-.38,1.77-.83,3.53-1.11,5.32-.18,1.11-.16,2.26-.12,3.39.06,1.56.97,2.47,2.42,2.91,1.38.43,2.75.3,4.13.04.35-.06.69-.14,1.15-.23-.09.28-.12.48-.21.66-1.2,2.49-3.05,4.41-5.24,6.03-4.28,3.16-9.08,5.08-14.34,5.84-.77.11-1.54.16-2.35.15,1.75-1.07,3.25-2.4,4.59-3.91,1.33-1.5,2.55-3.07,3.26-5.23-3.23.98-6.33,1.44-9.73,1.27.58-.48,1.01-.8,1.39-1.16,2.74-2.63,4.33-5.86,4.89-9.6.39-2.66.06-5.24-1.11-7.67-1.5-3.12-3.99-5.17-7.18-6.33-5.89-2.14-11.63-1.74-17.17,1.25-.14.08-.29.14-.43.21-.02,0-.05-.02-.16-.07,1.37-3.74,3.62-6.9,6.36-9.73,2.72-2.8,5.78-5.15,9.39-6.81-3.73-1.46-7.59-2.28-11.46-3.08-.01-.07-.03-.14-.04-.2.73-.46,1.44-.96,2.19-1.38,3.86-2.13,8.02-3.45,12.3-4.43,2.5-.57,5.02-.99,7.59-1.05.24,0,.49-.06.73-.16-.76-.4-1.59-.46-2.39-.53-9.43-.8-18.31,1-26.51,5.81-2.05,1.2-3.88,2.7-5.5,4.44-.16.18-.29.39-.47.64,2.01.3,3.92.55,5.82.87,1.88.32,3.74.68,5.67,1.28-1.63.48-3.16.87-4.65,1.39-5.64,1.95-10.83,4.79-15.82,8.02-3.43,2.22-6.73,4.61-9.69,7.46-.09.08-.2.14-.45.31.09-.53.14-.9.21-1.27.5-2.57,1.05-5.14,1.5-7.72.26-1.5.37-3.02.16-4.55-.35-2.63-1.62-4.68-3.81-6.16-1.82-1.23-3.88-1.76-6.02-2.02-3.38-.41-6.73-.07-10.06.46-.83.13-1.65.28-2.57.29.36-.33.72-.68,1.09-1,3.14-2.74,6.66-4.93,10.29-6.95,3.79-2.11,7.63-4.14,11.41-6.27,1.27-.71,2.43-1.61,3.63-2.43.21-.15.4-.33.6-.5,1.56-1.35,1.93-2.99,1.2-4.91-.54-1.41-1.33-2.66-2.26-3.83-2.5-3.15-5.49-5.75-8.93-7.91,3.17-.2,6.33-.16,9.48.11,3.16.28,6.29.72,9.57,1.7-.55-1.12-1.06-2.03-1.46-2.99-.4-.95-.76-1.93-1.03-2.93-.28-1.03-.5-2.08-.64-3.14-.14-1.06-.21-2.13-.22-3.19,0-1.03.05-2.07.18-3.1.13-1.05.37-2.08.61-3.35.23.34.33.45.39.58,1.68,3.62,4.19,6.6,7.18,9.2,3.27,2.84,6.94,5.09,10.66,7.27,3.58,2.09,7.18,4.15,10.7,6.34,2.84,1.77,5.48,3.82,7.6,6.45.69.85,1.27,1.8,1.89,2.7.16.23.3.47.61.66-.03-.23-.04-.47-.1-.69-.87-3.16-2.57-5.86-4.64-8.34-2.24-2.68-4.84-4.96-7.8-6.81-.54-.34-.84-.75-1.02-1.33-1.02-3.18-1.35-6.47-1.36-9.78,0-4.75.57-9.44,1.92-14.01.53-1.81,1.18-3.57,2.16-5.19.21-.36.46-.69.79-1.19.07.33.14.49.14.65-.1,6.34,2.1,11.92,5.61,17.07,2.92,4.28,6.42,8.05,10.2,11.56,4.16,3.85,8.4,7.61,12.58,11.44,2.94,2.69,5.79,5.48,8.31,8.58,1.35,1.66,2.58,3.41,3.58,5.31.1.19.25.37.54.48-.1-.31-.19-.63-.31-.93-1.54-4.08-3.87-7.68-6.62-11.03-3.09-3.77-6.63-7.09-10.22-10.37-2.85-2.6-5.67-5.23-8.49-7.85-.33-.31-.6-.68-.95-.97-1.48-1.24-2.12-2.89-2.39-4.74-.77-5.39-.12-10.59,2.16-15.55.16-.34.37-.65.55-.97l.18.1ZM813.04,100.42c0,.34-.03.47,0,.58.6,2.05,1.28,4.08,2.32,5.96,1.85,3.33,4.6,5.27,8.47,5.5.26.02.53-.03.94-.06-2.32-5.66-6.02-9.68-11.73-11.98Z"/>
          <path class="cls-1" d="M810.01,64.2c.35-.58.67-1.1.97-1.63,3.41-5.84,4.93-12.15,4.56-18.89-.22-4.03-1.18-7.88-3.28-11.37-3.37-5.62-8.34-8.59-14.89-8.67-8.18-.1-13.8,4.02-17.35,11.12-2.56,5.13-2.78,10.58-1.58,16.12.13.59.12,1.13-.03,1.71-1.68,6.53-2.18,13.15-1.34,19.85.06.51.14,1.02.22,1.54-2.37-.35-10.02-6.27-13.27-10.18-3.64-4.37-5.98-9.42-7.78-14.81-1.34,1.32-3.53,8.27-4.08,12.63-.57,4.45-.39,8.85.64,13.3-.29-.29-.61-.56-.88-.86-2.86-3.26-4.89-6.99-6.32-11.07-1.27-3.63-1.93-7.38-2.19-11.21-.37-5.44.03-10.81,1.38-16.09,1.94-7.58,5.69-14.14,11.11-19.76,3.23-3.35,6.8-6.28,10.81-8.67,5.01-2.98,10.39-4.95,16.1-6.07,6.37-1.25,12.8-1.43,19.25-.91,6.67.54,13.11,2.02,19.19,4.89,9.96,4.7,17.22,12.06,21.58,22.19,3.1,7.21,4.3,14.78,3.76,22.59-.29,4.25-1.27,8.38-2.58,12.43-2.57,7.99-6.25,15.41-11.3,22.13-.34.46-.71.9-1.1,1.38-.19-.15-.32-.24-.43-.35-3.82-3.55-7.65-7.09-11.45-10.65-3.17-2.97-6.2-6.07-8.86-9.52-.29-.38-.57-.78-.85-1.17Z"/>
          <path class="cls-1" d="M870.93,160.81c-1.37-1.12-2.64-2.17-3.92-3.21-2.31-1.89-4.62-3.77-6.92-5.66-1.8-1.47-3.79-2.59-5.98-3.36-.24-.08-.47-.19-.8-.32.99-1.33,1.91-2.62,2.87-3.87,6.81-8.84,14.51-16.82,23.34-23.67,6.79-5.28,14.08-9.7,22.14-12.77,5.32-2.03,10.81-3.39,16.51-3.79.19-.01.38-.05.6-.24-.21-.05-.42-.12-.63-.14-3.8-.34-7.57-.03-11.31.67-7.59,1.41-14.68,4.18-21.44,7.85-5.64,3.05-10.88,6.68-15.57,11.06-1.56,1.46-3,3.04-4.49,4.57-.26.27-.51.56-.77.85-.06-.03-.11-.06-.17-.09.1-.36.19-.72.3-1.07,1.07-3.45,2.61-6.7,4.42-9.81,4.69-8.06,10.56-15.13,17.86-20.96,1.47-1.17,3.04-2.2,4.58-3.28.3-.21.64-.38,1.06-.46-.19.28-.4.56-.58.85-1,1.59-2.04,3.15-2.96,4.79-.42.75-.69,1.61-.87,2.46-.27,1.22.39,1.92,1.65,1.89.94-.02,1.78-.41,2.52-.93,1.41-.98,2.8-1.99,4.12-3.08,3.09-2.52,6.08-5.15,9.39-7.39,3.32-2.25,6.82-4.12,10.77-5.02,1.13-.26,2.28-.4,3.49-.43-.23.14-.46.3-.7.43-2.07,1.15-4.11,2.35-5.85,3.98-.68.64-1.29,1.37-1.8,2.14-.28.43-.41,1.03-.42,1.55-.02.97.62,1.68,1.6,1.74.63.04,1.31-.02,1.91-.19,2.2-.65,4.39-1.37,6.58-2.05,4.74-1.47,9.59-2.22,14.56-2.02,4.5.18,8.86,1.09,13.1,2.6,8.21,2.94,15.41,7.48,21.64,13.57.25.25.49.52.72.78.04.04.03.12.04.23-.23-.04-.45-.06-.67-.1-3.45-.74-6.94-.79-10.44-.56-3.96.25-7.85.89-11.69,1.83-4.13,1.01-8.17,2.28-11.95,4.28-1.25.66-2.43,1.48-3.73,2.28-.09-.05-.28-.15-.46-.27-3.19-2.21-6.74-3.46-10.56-3.91-8.23-.98-15.76.93-22.54,5.71-1.94,1.37-3.65,3-5.2,4.8-6.12,7.09-11.34,14.8-15.93,22.96-2.58,4.58-4.94,9.26-7.04,14.07-.09.2-.21.39-.38.72Z"/>
          <path class="cls-2" d="M813.04,100.42c5.71,2.3,9.41,6.33,11.73,11.98-.41.03-.68.08-.94.06-3.86-.23-6.62-2.18-8.47-5.5-1.04-1.88-1.72-3.91-2.32-5.96-.03-.11,0-.25,0-.58Z"/>
        </g>
        <g>
          <path class="cls-1" d="M882.67,182.48c2.41.03,3.13,1.14,1.91,3.55,7.55,5.68,15.12,11.37,22.22,16.71,1.49-.2,2.58-.63,3.44-.36.58.19.84,1.37,1.25,2.11,1.13.45,2.67.72,3.7,1.58.89.74,1.39,2.11,1.7,3.29.35,1.32,2.48,3.11,3.88,3.25,1.68.17,2.85-.29,3.55-1.79.17-.37.13-.83.27-1.22.18-.51.46-1.42.66-1.41,1.54.07,1.92-1.2,2.67-2.04.21-.23.41-.48.71-.84,9.59,7.07,19.14,14.12,28.72,21.19-.59.76-1.19,1.4-1.61,2.13-.28.48-.24,1.13-.47,1.65-.23.51-.65,1.35-.96,1.34-.95-.04-1.29.53-1.73,1.1-3.57,4.66-7.16,9.3-10.69,13.98-.3.4-.25,1.04-.44,1.54-.17.47-.42,1.3-.66,1.3-1.65.03-2.09,1.42-2.93,2.35-.12.13-.25.27-.48.51-9.56-7.05-19.1-14.1-28.71-21.18.56-.73,1.16-1.38,1.59-2.11.28-.49.43-1.11.46-1.68.04-.81.31-1.29,1.15-1.43,1.6-.26,2.63-2.22,2.44-3.75-.25-1.97-1.78-2.64-3.05-3.62-.21-.16-.6-.2-.88-.17-3.68.46-5.27-.53-6.38-3.66-1.16-.34-2.36-.34-2.85-.92-.49-.58-.26-1.74-.35-2.65.16-.05.31-.1.47-.15-7.58-5.7-15.16-11.4-22.72-17.08-2.3,1.75-3.39,1.42-3.98-.76-1.69-.94-3.23-1.59-4.53-2.56-10.53-7.85-21.02-15.76-31.52-23.66-2.85-2.15-3.87-5.33-2.79-8.52,1.04-3.08,3.89-5.2,7.31-4.99,1.48.09,3.16.63,4.34,1.51,10.9,8.06,21.72,16.21,32.52,24.4,1.03.78,1.78,1.94,2.76,3.04Z"/>
          <path class="cls-1" d="M962.24,213.66q2.18,1.93.96,3.82c1.12,1.2,1.83,2.56,1.51,4.3-.58,3.13-4.14,4.55-6.72,2.65-9.01-6.64-18.01-13.28-27.02-19.93-1.97-1.45-2.58-4.12-1.41-6.08,1.2-2.01,3.58-2.64,5.93-1.58.13.06.26.11.38.16q1.96-1.51,4.06-.06c.2-.13.42-.26.63-.42,1.61-1.19,3.24-1.26,4.85-.06,5.28,3.93,10.55,7.89,15.8,11.86,1.75,1.33,1.99,2.78,1.03,5.33Z"/>
          <path class="cls-1" d="M929.81,260.94q-1.54,1.76-3.96,0c-2.35,2.07-4.41,1.09-6.58-.6-4.61-3.59-9.31-7.08-14.02-10.56-1.73-1.28-2.43-2.78-1.8-4.87.09-.31-.13-.86-.39-1.09-1.63-1.44-1.65-1.45-.29-3.49-.23-.2-.59-.43-.83-.74-1.3-1.73-1.13-4.14.37-5.65,1.57-1.58,3.78-1.73,5.64-.36,8.94,6.59,17.84,13.22,26.82,19.74,1.98,1.44,2.66,4.53,1.48,6.31-1.3,1.98-3.58,2.53-6.09,1.38-.08-.04-.18-.04-.35-.08Z"/>
        </g>
      </g>
      <path class="cls-1" d="M912.23,291.08c-9.92-.1-19.84-.19-29.76-.29-1.83-.02-2.07-.25-2.05-2.06.01-1.66.02-3.32.05-4.98.03-1.57.31-1.84,1.9-1.83,13.45.13,26.9.26,40.36.39,6.51.06,13.03.13,19.54.19,1.7.02,1.91.23,1.9,1.93-.01,1.7-.03,3.41-.05,5.11-.02,1.61-.26,1.85-1.87,1.83-10-.09-20.01-.19-30.01-.29Z"/>
      <path class="cls-1" d="M890.66,274.81c.81-2.3,1.1-2.49,3.61-2.47,12.3.12,24.6.24,36.9.36,1.74.02,2.18.38,2.82,1.99.12.3.63.6.99.63,2.98.23,4.72,2.13,4.6,5.21-18.14-.18-36.28-.35-54.41-.53-.24-3.12,1.47-4.72,5.48-5.2Z"/>
    </g>
    <g>
      <path class="cls-1" d="M32.28,199.81H0c4.2-.6,7.8-2.52,10.32-6.24v-75c-2.52-3.72-6.12-5.64-10.32-6.24h32.76c1.56-.12,3.12-.12,4.8-.12,9.48,0,20.28,1.92,29.64,8.04,10.32,6.72,15.36,20.88,15.36,35.16s-4.92,28.56-14.52,36c-8.52,6.6-19.68,8.64-29.64,8.64-2.16,0-4.2-.12-6.12-.24ZM35.76,185.53c18.96-2.4,27.36-15.12,27.36-28.08,0-15.48-11.76-31.44-31.8-31.44h-.96v59.76c1.8,0,3.6-.12,5.4-.24Z"/>
      <path class="cls-1" d="M103.32,191.05c-5.76-7.44-7.2-14.28-7.44-19.56v-52.92c-2.52-3.72-6.12-5.64-10.32-6.24h30.48v52.8c.48,11.4,8.28,15.72,17.28,15.72,3.72,0,7.8-.84,11.52-2.16v-60.12c-2.52-3.72-6-5.64-10.2-6.24h30.36v85.44s-3.6-1.68-10.56-1.68c-3.72,0-8.16.36-13.68,1.8-5.16,1.32-10.08,1.92-14.76,1.92-9.96,0-18.36-3-22.68-8.76Z"/>
      <path class="cls-1" d="M203.04,142.93v56.88h-25.08c4.2-.6,7.68-2.4,10.2-6v-75.84c-2.52-3.6-6-5.4-10.2-6h10.92c21.24,0,40.2,45.24,50.4,58.92v-52.68c-2.52-3.72-6.12-5.64-10.32-6.24h35.64c-4.2.6-7.8,2.52-10.32,6.24v78.12c0,4.2,6.48,8.88,6.48,8.88-23.64-3.36-42.84-32.76-57.72-62.28Z"/>
      <path class="cls-1" d="M282.84,190.21c-7.56-5.28-15.24-18.12-15.24-33.6.12-36.36,25.44-44.76,45.6-44.76,11.4,0,21.36,2.76,23.88,4.56l3.24,14.16c-6.84-3.24-13.8-4.68-20.16-4.68-1.68,0-3.36.12-5.04.36-19.2,2.4-28.8,15.72-28.8,28.68s9.96,25.8,29.64,25.8c1.56,0,3.12-.12,4.8-.24l-.12-19.2c-.24-.48.6-6.12-6-6.12h26.16c0,11.4-.36,22.68-.36,34.08.72,4.08,2.64,8.04,6.36,10.56l-16.68.12c-16.8,0-34.8-1.08-47.28-9.72Z"/>
      <path class="cls-1" d="M349.79,199.81c4.2-.6,7.68-2.4,10.2-6v-75.72c-2.52-3.72-6-5.52-10.2-6.12h71.04l3.84,14.4c-2.04-3.72-12.36-4.56-22.8-4.56-9,0-18,.6-21.72.6v18.96h22.92c3.84-.96,6.48-3,7.08-6.36v25.56c-.48-3.36-3.48-5.28-7.56-6.36h-22.44v26.4c3,0,9.96.24,17.76.24,12.84,0,27.84-.72,30.12-4.68l-7.2,23.64h-71.04Z"/>
      <path class="cls-1" d="M431.03,157.33c0-22.44,14.16-45.36,41.4-45.36,6,0,11.76.84,15,5.52h-.36c-2.88,0-24.6.6-31.68,19.08-2.4,6.36-3.48,12.12-3.48,17.16,0,15.48,9.84,24.36,19.92,24.36,7.92,0,15.84-5.52,19.08-17.52.72-2.64.96-5.04.96-7.44,0-15-11.76-25.56-11.76-25.56,2.28-.6,4.56-.84,6.6-.84,15.96,0,25.32,15.72,25.32,32.64,0,19.44-12.48,40.44-41.28,40.44-26.76,0-39.72-21-39.72-42.48Z"/>
      <path class="cls-1" d="M540.11,142.93v56.88h-25.08c4.2-.6,7.68-2.4,10.2-6v-75.84c-2.52-3.6-6-5.4-10.2-6h10.92c21.24,0,40.2,45.24,50.4,58.92v-52.68c-2.52-3.72-6.12-5.64-10.32-6.24h35.64c-4.2.6-7.8,2.52-10.32,6.24v78.12c0,4.2,6.48,8.88,6.48,8.88-23.64-3.36-42.84-32.76-57.72-62.28Z"/>
      <path class="cls-1" d="M608.75,194.41l-4.08-16.44c.24.36,7.92,3.36,15.36,5.64,3.84,1.2,8.52,2.64,12.96,2.64,2.64,0,5.28-.48,7.56-1.92,2.28-1.44,3.84-3.72,3.84-6.72v-.36c0-8.52-11.28-12.12-17.76-15.36-14.28-6.96-20.64-13.44-20.64-25.56v-1.32c.36-14.4,14.04-22.56,30.36-23.16h1.32c7.44,0,13.8,1.8,21,3.6l3.72,14.4c-1.08-1.92-11.16-5.52-19.8-5.52-5.64,0-10.8,1.44-12.48,5.76-.36.96-.6,1.92-.6,2.76,0,4.92,6.12,7.56,13.56,11.16,12.12,5.64,24.6,12.84,24.84,27.36v.84c0,16.8-15.12,27.12-34.56,27.24-9.12,0-16.2-2.04-24.6-5.04Z"/>
    </g>
    <g>
      <path class="cls-1" d="M1032.9,198.64h-32.28c4.2-.6,7.8-2.52,10.32-6.24v-75c-2.52-3.72-6.12-5.64-10.32-6.24h32.76c1.56-.12,3.12-.12,4.8-.12,9.48,0,20.28,1.92,29.64,8.04,10.32,6.72,15.36,20.88,15.36,35.16s-4.92,28.56-14.52,36c-8.52,6.6-19.68,8.64-29.64,8.64-2.16,0-4.2-.12-6.12-.24ZM1036.38,184.36c18.96-2.4,27.36-15.12,27.36-28.08,0-15.48-11.76-31.44-31.8-31.44h-.96v59.76c1.8,0,3.6-.12,5.4-.24Z"/>
      <path class="cls-1" d="M1103.94,189.88c-5.76-7.44-7.2-14.28-7.44-19.56v-52.92c-2.52-3.72-6.12-5.64-10.32-6.24h30.48v52.8c.48,11.4,8.28,15.72,17.28,15.72,3.72,0,7.8-.84,11.52-2.16v-60.12c-2.52-3.72-6-5.64-10.2-6.24h30.36v85.44s-3.6-1.68-10.56-1.68c-3.72,0-8.16.36-13.68,1.8-5.16,1.32-10.08,1.92-14.76,1.92-9.96,0-18.36-3-22.68-8.76Z"/>
      <path class="cls-1" d="M1168.62,198.64c4.2-.6,7.68-2.4,10.2-6v-75.72c-2.52-3.72-6-5.52-10.2-6.12h71.04l3.84,14.4c-2.04-3.72-12.36-4.56-22.8-4.56-9,0-18,.6-21.72.6v18.96h22.92c3.84-.96,6.48-3,7.08-6.36v25.56c-.48-3.36-3.48-5.28-7.56-6.36h-22.44v26.4c3,0,9.96.24,17.76.24,12.84,0,27.84-.72,30.12-4.68l-7.2,23.64h-71.04Z"/>
      <path class="cls-1" d="M1306.58,198.64v-81.72c-2.52-3.72-6-5.52-10.08-6.12h51.84c14.4,0,26.28,11.88,26.28,26.4s-12.24,27.72-26.76,27.72h-21.12v27.84c2.52,3.48,5.88,5.28,9.96,5.88h-30.12ZM1353.62,138.16c0-10.2-8.28-18.6-18.48-18.6h-8.4v37.2h8.4c10.2,0,18.48-8.4,18.48-18.6Z"/>
      <path class="cls-1" d="M1414.7,164.92h-6.72v27.6c2.4,3.6,5.88,5.28,9.84,5.88h-30v-81.36c-2.52-3.84-6-5.64-10.2-6.36h51.84c14.52,0,26.4,12.24,26.4,27.12,0,12.6-8.76,24.12-20.16,27.48,4.44,11.16,21.24,27.48,31.2,33.72l-5.76.6-3,.24c-19.56,0-36.12-23.28-43.44-34.92ZM1434.86,138.88c0-10.56-8.28-19.08-18.6-19.08h-8.28v36.72h8.28c10.2,0,18.6-7.2,18.6-17.64Z"/>
      <path class="cls-1" d="M1469.9,156.16c0-22.44,14.16-45.36,41.4-45.36,6,0,11.76.84,15,5.52h-.36c-2.88,0-24.6.6-31.68,19.08-2.4,6.36-3.48,12.12-3.48,17.16,0,15.48,9.84,24.36,19.92,24.36,7.92,0,15.84-5.52,19.08-17.52.72-2.64.96-5.04.96-7.44,0-15-11.76-25.56-11.76-25.56,2.28-.6,4.56-.84,6.6-.84,15.96,0,25.32,15.72,25.32,32.64,0,19.44-12.48,40.44-41.28,40.44-26.76,0-39.72-21-39.72-42.48Z"/>
      <path class="cls-1" d="M1568.18,190.24c-9.6-7.44-14.28-21.36-14.28-35.28s4.92-28.56,15-35.88c8.4-6.24,19.2-8.16,28.92-8.16,11.52,0,21.48,2.76,24.12,4.68l3.96,14.4c-7.08-3.36-14.04-4.8-20.4-4.8-1.68,0-3.36.12-5.04.36-18.24,2.28-27.48,15.84-27.48,29.4s9.24,27,27.48,29.4c1.56.24,3.24.24,4.92.24,6.36,0,13.32-1.44,20.52-4.68l-3.96,14.4c-2.64,1.8-12.6,4.56-24.12,4.56-10.08,0-21.12-2.04-29.64-8.64Z"/>
      <path class="cls-1" d="M1628.9,198.64c4.2-.6,7.68-2.4,10.2-6v-75.72c-2.52-3.72-6-5.52-10.2-6.12h71.04l3.84,14.4c-2.04-3.72-12.36-4.56-22.8-4.56-9,0-18,.6-21.72.6v18.96h22.92c3.84-.96,6.48-3,7.08-6.36v25.56c-.48-3.36-3.48-5.28-7.56-6.36h-22.44v26.4c3,0,9.96.24,17.76.24,12.84,0,27.84-.72,30.12-4.68l-7.2,23.64h-71.04Z"/>
      <path class="cls-1" d="M1714.21,193.24l-4.08-16.44c.24.36,7.92,3.36,15.36,5.64,3.84,1.2,8.52,2.64,12.96,2.64,2.64,0,5.28-.48,7.56-1.92,2.28-1.44,3.84-3.72,3.84-6.72v-.36c0-8.52-11.28-12.12-17.76-15.36-14.28-6.96-20.64-13.44-20.64-25.56v-1.32c.36-14.4,14.04-22.56,30.36-23.16h1.32c7.44,0,13.8,1.8,21,3.6l3.72,14.4c-1.08-1.92-11.16-5.52-19.8-5.52-5.64,0-10.8,1.44-12.48,5.76-.36.96-.6,1.92-.6,2.76,0,4.92,6.12,7.56,13.56,11.16,12.12,5.64,24.6,12.84,24.84,27.36v.84c0,16.8-15.12,27.12-34.56,27.24-9.12,0-16.2-2.04-24.6-5.04Z"/>
      <path class="cls-1" d="M1780.45,193.24l-4.08-16.44c.24.36,7.92,3.36,15.36,5.64,3.84,1.2,8.52,2.64,12.96,2.64,2.64,0,5.28-.48,7.56-1.92,2.28-1.44,3.84-3.72,3.84-6.72v-.36c0-8.52-11.28-12.12-17.76-15.36-14.28-6.96-20.64-13.44-20.64-25.56v-1.32c.36-14.4,14.04-22.56,30.36-23.16h1.32c7.44,0,13.8,1.8,21,3.6l3.72,14.4c-1.08-1.92-11.16-5.52-19.8-5.52-5.64,0-10.8,1.44-12.48,5.76-.36.96-.6,1.92-.6,2.76,0,4.92,6.12,7.56,13.56,11.16,12.12,5.64,24.6,12.84,24.84,27.36v.84c0,16.8-15.12,27.12-34.56,27.24-9.12,0-16.2-2.04-24.6-5.04Z"/>
    </g>
  </g>
</svg>