<?xml version="1.0" encoding="UTF-8"?>
<svg id="Layer_5" data-name="Layer 5" xmlns="http://www.w3.org/2000/svg" viewBox="0 0 500 500">
  <defs>
    <style>
      .cls-1 {
        fill: #000;
        stroke-width: 0px;
      }
    </style>
  </defs>
  <g id="S72lwY">
    <g>
      <path class="cls-1" d="M488.83,259.76c-.46-.7-.85-1.22-1.16-1.79-14.59-26.59-39.67-30.46-60.14-17.16-16.42,10.67-25.84,27.32-26.96,50.13-.37,7.56,1.61,13.86,6.16,19.08,1.26,1.45,2.36,3.09,3.7,4.86,3.35-4.35,6.41-8.32,9.56-12.41-.08-.1-.4-.78-.89-1.18-4.82-4-5.11-9.46-4.14-15.8,2-13.06,11.86-27.56,22.21-31.43.19,3.16.47,6.18.53,9.21.54,26.48-5.67,50.19-20.55,70.15-2.38,3.19-5.28,6-8.31,8.28-5.8,4.36-11.64,3.58-16.94-1.76-5.64-5.68-8.27-13.42-9.07-21.81-3.46-36.56,6.19-67.23,29.81-91.06,10.62-10.72,22.94-14.47,36.62-10.12,3.9,1.24,7.77,2.6,11.59,4.14,14.93,6.01,23.51,19.06,27.98,36.56.09.35.15.73.17,1.09.01.23-.07.47-.17,1.01Z"/>
      <path class="cls-1" d="M73.12,251.16c.69.31,1.48.54,2.16.99,11.17,7.47,18.22,18.39,19.91,33.89.47,4.26-.1,7.87-3.14,10.54-1.01.88-1.96,1.85-2.9,2.73,3.59,4.34,6.75,8.17,9.85,11.92,9.62-7.74,11.39-18.64,9.54-31.61-4.98-34.81-38.15-58.1-65.45-45.65-8.42,3.84-14.83,10.68-20.01,19.34-.6,1.01-1.18,2.03-1.78,3.04-.05.08-.19.09-.74.32.58-2.34,1-4.41,1.59-6.4,5.63-18.92,17.3-29.23,33.02-34.89,18.11-6.51,33.59-2.15,46.79,13.64,20.68,24.73,29.07,54.49,24.46,89.19-.91,6.84-3.38,13.02-7.73,17.86-5.62,6.27-11.74,7.36-18.09,2.21-3.97-3.22-7.73-7.21-10.71-11.69-14.35-21.54-19.45-46.38-17.42-73.57.03-.37.09-.74.19-1.09.06-.22.22-.39.46-.79Z"/>
      <path class="cls-1" d="M420.25,202.17c-17.46,10.56-22.57,17.28-33.77,33.37-.78-.98-1.55-1.95-2.32-2.92-9.15-11.51-20.21-18.59-33.54-19.4-7.85-.48-13.82-3.78-18.32-11.64-2.37-4.13-5.67-7.5-8.73-11.44,9.09-7.41,18.75-13.7,29.23-18.2,17.44-7.49,34.23-4.09,50.77,4.08.64.32,1.32.84,1.72,1.5,5,8.16,9.94,16.37,14.96,24.65Z"/>
      <path class="cls-1" d="M122.65,231.85c-8.45-13.49-18.97-25.17-33.31-32.36,5.14-8.51,9.99-16.67,14.99-24.69.74-1.18,2.13-1.91,3.33-2.51,22.32-11.25,43.98-9.62,64.93,4.97,4.55,3.17,9.06,6.43,13.65,9.69-4.99,6.58-9.49,13.17-14.63,18.93-1.97,2.21-5.37,3.19-8.23,3.55-8.51,1.07-17.01,2.31-24.35,7.86-5.63,4.25-10.74,9.49-16.38,14.56Z"/>
      <path class="cls-1" d="M375.95,151.09c-23.76-.88-43.07,11.6-61.69,26.41-1.31,1.04-3.29,2.92-4.11,2.42-2.38-1.45-5.18-3.42-6.26-6.09-1.47-3.64-1.58-8.1-2.11-12.23-.09-.72.5-2,1.06-2.32,15.07-8.62,30.24-16.92,47.52-16.07,8.46.42,16.52,3.05,24.34,6.84.34.16.61.51,1.24,1.06Z"/>
      <path class="cls-1" d="M134.87,147.23c5.29-2.91,11.59-4.93,18.09-6.24,9.16-1.85,18.23-1.16,26.96,2.45,8.58,3.55,16.93,7.87,25.42,11.74,2.37,1.08,3.11,2.88,2.61,5.72-.47,2.66-.84,5.34-1.25,8.02-.72,4.73-4.16,6.19-7.09,8.12-.52.34-1.83-.63-2.61-1.28-12.71-10.62-26.04-19.88-41.16-24.5-6.99-2.13-14.3-2.8-20.97-4.04Z"/>
    </g>
  </g>
  <g id="K5Ps15">
    <g>
      <path class="cls-1" d="M392.01,197.57c-1.22,29.19-8.21,55.78-19.48,80.72-8.82,19.52-21.13,34.28-38.31,41.84-14.38,6.33-28.41,5.21-42.06-3.65-10.65-6.91-21.56-13.11-33.22-17-2.56-.85-4.98-.86-7.54,0-11.22,3.77-21.8,9.58-32.05,16.27-21.59,14.09-41.7,9.78-60.74-7.38-11.46-10.33-19.02-24.58-25.15-40.23-7.89-20.16-13.01-41.28-14.81-63.62-.18-2.17-.19-4.36-.28-6.66,3.7,1.93,7.26,3.98,10.93,5.65,13.13,5.96,26.44,6.34,40.2,3.27,32.63-7.29,60.12,4.54,81.82,36.24,1.32,1.93,2.48,4.04,3.83,6.24.28-.39.52-.69.72-1.02,18.9-31.44,44.03-45.98,75.44-43.05,6.4.6,12.72,2.47,19.11,3.31,14.17,1.86,27.46-2.25,40.13-10,.39-.24.77-.49,1.45-.92ZM347.94,246.12c-21.15-18.43-60.48-3.38-70.68,27.05,7.66,5.83,23.45,12.47,36.28,11.27,16.25-1.51,31.36-18.09,34.4-38.32ZM233.21,273.28c-6.4-16.05-21.82-30.66-35.74-33.92-12.37-2.89-24.04-.19-35.32,6.6,2.12,7.95,4.81,15.01,8.73,21.27,5.4,8.62,12.36,14.14,20.96,16.33,5.58,1.42,11.21,1.31,16.82.21,8.67-1.7,16.81-5.33,24.55-10.48ZM255.16,262.68c-6.92-14.37-16.27-24.38-28.3-30.43.4.66.9,1.16,1.42,1.64,8.95,8.16,16.59,17.93,22.95,29.26,3.4,6.05,3.55,18.25.39,24.55-2.84,5.66-9.97,6.08-11.94-.27-1.15-3.69-3.8-4.99-6.79-4.77-1.33.1-2.7.75-3.93,1.48-12.22,7.21-24.97,11.06-38.52,8.69-16.24-2.84-27.77-14.43-36.3-31.33-.27-.54-.53-1.09-.81-1.63-.23-.43-.47-.84-.71-1.26,2.48,8.84,6.12,16.81,11.07,23.78,10.04,14.15,22.53,20.08,37.57,17.36,9.49-1.71,18.08-6.48,26.34-12.33,1.01-.72,2.03-1.49,3.11-1.99,3.7-1.7,5.8-.63,7.44,3.79,1.25,3.36,3.21,5.35,6.22,5.63,4.09.37,7.67-2.2,9.64-6.99.38-.93.7-1.9,1.11-3.02.74,1.75,1.28,3.33,2.04,4.73,4.01,7.42,13.21,7.19,15.36-1.19.85-3.29,3.04-4.31,5.92-3.38,1.39.45,2.73,1.29,3.99,2.19,6.11,4.39,12.43,8.16,19.23,10.55,12.03,4.23,23.76,3.99,34.71-4.49,10.51-8.14,17.02-20.3,21.51-34.38.02-.06-.12-.2-.22-.35-.79,1.58-1.54,3.15-2.34,4.67-7.83,14.74-18.08,25.35-32.27,28.91-14.67,3.68-28.48-.15-41.73-8.08-4.78-2.86-8.43-1.59-11.04,4.21-1.16,2.58-2.86,3.8-5.18,3.81-3.32.02-6.26-2.29-7.19-6.69-.87-4.1-1.42-8.45-1.33-12.67.07-3.01.95-6.37,2.29-8.89,5.45-10.28,12.19-19.17,19.96-26.8,1.56-1.54,3.15-3.04,4.72-4.56-12.14,5.91-21.48,15.95-28.37,30.24ZM119.49,201.87c.89,3.08,1.89,6.09,3.01,9.01,3.83,9.94,6.85,11.06-3.01-9.01ZM389.14,207.33c.63-1.77,1.21-3.58,1.81-5.37-9.98,20.03-5.05,14.41-1.81,5.37ZM190.17,219.57c0-2.56-1.7-4.72-3.75-4.79-2.12-.07-3.91,2.16-3.9,4.86.01,2.61,1.67,4.72,3.73,4.77,2.14.05,3.92-2.15,3.91-4.84ZM324.09,214.78c-2.04-.05-3.82,2.03-3.92,4.58-.1,2.68,1.61,4.99,3.74,5.05,2.07.06,3.8-1.96,3.9-4.56.1-2.71-1.59-5.01-3.72-5.07ZM308.45,221.89c0-2.07-1.3-3.63-2.98-3.52-1.78.12-2.71,1.54-2.71,3.57,0,2.06,1.04,3.4,2.76,3.55,1.61.15,2.94-1.55,2.93-3.6ZM170.51,221.97c-.13-2.1-.95-3.42-2.7-3.59-1.61-.15-3.02,1.5-3.05,3.48-.03,1.95,1.38,3.75,2.95,3.63,1.71-.13,2.62-1.39,2.8-3.52ZM204.8,225.54c1.72-.31,2.7-1.53,2.81-3.62.1-1.96-1.37-3.62-2.98-3.56-1.65.07-2.88,1.74-2.72,3.82.17,2.18,1.27,3.16,2.89,3.36ZM343.04,218.37c-1.88-.05-3.11,1.37-3.19,3.33-.09,2.06,1.16,3.77,2.77,3.8,1.58.03,3.06-1.71,2.93-3.65-.13-2.08-1.09-3.32-2.51-3.49ZM218.04,230.41c.33,0,.67-.01,1-.02.57-1.08,1.68-2.27,1.56-3.21-.13-1.04-1.39-2.56-2.17-2.57-.73,0-1.98,1.62-2.06,2.65-.08.97,1.06,2.1,1.66,3.15ZM294.4,227.89c0-.41.02-.81.02-1.22-.84-.76-1.73-2.18-2.5-2.09-.83.1-1.55,1.63-2.32,2.53.73.95,1.38,2.52,2.21,2.68.77.15,1.72-1.21,2.59-1.9ZM366.35,223.41c-1.39-1.31-2.2-2.66-2.93-2.6-.78.07-1.48,1.49-2.21,2.31.67.91,1.26,2.4,2.04,2.57.72.15,1.62-1.12,3.1-2.28ZM150.07,223.28c-1.43-1.24-2.27-2.56-3.02-2.47-.76.09-1.98,1.55-1.98,2.41,0,.89,1.17,2.37,1.94,2.48.74.11,1.61-1.2,3.05-2.42Z"/>
      <path class="cls-1" d="M255.16,262.68c6.9-14.29,16.23-24.33,28.37-30.24-1.57,1.52-3.16,3.02-4.72,4.56-7.77,7.64-14.51,16.52-19.96,26.8-1.34,2.53-2.22,5.88-2.29,8.89-.09,4.21.46,8.57,1.33,12.67.94,4.41,3.88,6.72,7.19,6.69,2.32-.02,4.02-1.24,5.18-3.81,2.61-5.8,6.25-7.07,11.04-4.21,13.25,7.93,27.06,11.76,41.73,8.08,14.2-3.57,24.45-14.17,32.27-28.91.81-1.52,1.55-3.09,2.34-4.67.1.16.24.29.22.35-4.49,14.08-11,26.24-21.51,34.38-10.95,8.48-22.68,8.72-34.71,4.49-6.8-2.39-13.12-6.16-19.23-10.55-1.26-.9-2.6-1.74-3.99-2.19-2.88-.94-5.07.09-5.92,3.38-2.16,8.38-11.36,8.61-15.36,1.19-.76-1.4-1.3-2.99-2.04-4.73-.41,1.12-.73,2.09-1.11,3.02-1.97,4.79-5.54,7.37-9.64,6.99-3.01-.28-4.97-2.27-6.22-5.63-1.65-4.43-3.74-5.49-7.44-3.79-1.09.5-2.1,1.27-3.11,1.99-8.26,5.85-16.84,10.61-26.34,12.33-15.03,2.71-27.53-3.22-37.57-17.36-4.95-6.98-8.59-14.94-11.07-23.78.24.42.49.83.71,1.26.28.53.54,1.09.81,1.63,8.53,16.9,20.07,28.49,36.3,31.33,13.56,2.37,26.3-1.47,38.52-8.69,1.23-.72,2.6-1.38,3.93-1.48,2.99-.21,5.64,1.08,6.79,4.77,1.97,6.34,9.09,5.93,11.94.27,3.17-6.3,3.02-18.5-.39-24.55-6.36-11.32-14-21.1-22.95-29.26-.52-.47-1.02-.98-1.42-1.64,12.02,6.05,21.37,16.06,28.3,30.43Z"/>
    </g>
  </g>
</svg>